name winter_1987_fast_cadence_kinematics_mean_var_rad
datacolumns 19
datarows 47
range 0.0000000000 0.4600000000
endheader
time	q_pelvis_tx_mean	q_pelvis_tx_var	q_pelvis_ty_mean	q_pelvis_ty_var	q_pelvis_tilt_mean	q_pelvis_tilt_var	hip_flexion_r_mean	hip_flexion_r_var	knee_angle_r_mean	knee_angle_r_var	ankle_angle_r_mean	ankle_angle_r_var	hip_flexion_l_mean	hip_flexion_l_var	knee_angle_l_mean	knee_angle_l_var	ankle_angle_l_mean	ankle_angle_l_var
0.0000000000	0.0000000000	0.0000000000	0.0000000000	0.0000000000	0.0000000000	0.0000000000	0.3152064629	0.0097241496	-0.1031489588	0.0050956707	0.0272271363	0.0022371408	-0.2300343954	0.0167711385	-0.2672099085	0.0069600207	0.0616101226	0.0081420886
0.0100000000	0.0000000000	0.0000000000	0.0000000000	0.0000000000	0.0000000000	0.0000000000	0.3110176727	0.0098970200	-0.1356120829	0.0047768885	0.0094247780	0.0022786068	-0.2279400003	0.0170890677	-0.3057816849	0.0072989456	0.0314159265	0.0089816142
0.0200000000	0.0000000000	0.0000000000	0.0000000000	0.0000000000	0.0000000000	0.0000000000	0.3068288825	0.0100714134	-0.1680752070	0.0044684025	-0.0083775804	0.0023204537	-0.2258456052	0.0174099822	-0.3443534614	0.0076459277	0.0012217305	0.0098623240
0.0300000000	0.0000000000	0.0000000000	0.0000000000	0.0000000000	0.0000000000	0.0000000000	0.3022910264	0.0103181231	-0.2011491963	0.0049841578	-0.0237364778	0.0024052896	-0.2197369528	0.0177338819	-0.3915646177	0.0080322207	-0.0380481777	0.0106757439
0.0400000000	0.0000000000	0.0000000000	0.0000000000	0.0000000000	0.0000000000	0.0000000000	0.2977531704	0.0105678180	-0.2342231856	0.0055280751	-0.0390953752	0.0024916486	-0.2136283004	0.0180607668	-0.4387757740	0.0084280329	-0.0773180859	0.0115213924
0.0500000000	0.0000000000	0.0000000000	0.0000000000	0.0000000000	0.0000000000	0.0000000000	0.2939134460	0.0108204981	-0.2680825731	0.0059780864	-0.0452040276	0.0026869998	-0.2023709268	0.0182724835	-0.4941027112	0.0088333645	-0.1213876495	0.0117094936
0.0600000000	0.0000000000	0.0000000000	0.0000000000	0.0000000000	0.0000000000	0.0000000000	0.2900737217	0.0110761635	-0.3019419606	0.0064457046	-0.0513126800	0.0028897227	-0.1911135531	0.0184854340	-0.5494296485	0.0092482153	-0.1654572131	0.0118991180
0.0700000000	0.0000000000	0.0000000000	0.0000000000	0.0000000000	0.0000000000	0.0000000000	0.2864957967	0.0112420963	-0.3326597554	0.0066718526	-0.0459021593	0.0032472902	-0.1745329252	0.0185566916	-0.6105161723	0.0096211584	-0.2073451151	0.0111129309
0.0800000000	0.0000000000	0.0000000000	0.0000000000	0.0000000000	0.0000000000	0.0000000000	0.2829178717	0.0114092627	-0.3633775503	0.0069018997	-0.0404916386	0.0036257088	-0.1579522973	0.0186280863	-0.6716026962	0.0100014733	-0.2492330172	0.0103536110
0.0900000000	0.0000000000	0.0000000000	0.0000000000	0.0000000000	0.0000000000	0.0000000000	0.2777691505	0.0115213924	-0.3868522287	0.0070037713	-0.0267035376	0.0039259398	-0.1363974810	0.0184854340	-0.7339982169	0.0101943951	-0.2816088748	0.0092818146
0.1000000000	0.0000000000	0.0000000000	0.0000000000	0.0000000000	0.0000000000	0.0000000000	0.2726204292	0.0116340703	-0.4103269071	0.0071063893	-0.0129154365	0.0042381117	-0.1148426648	0.0183433299	-0.7963937377	0.0103891599	-0.3139847324	0.0082685657
0.1100000000	0.0000000000	0.0000000000	0.0000000000	0.0000000000	0.0000000000	0.0000000000	0.2635447171	0.0116340703	-0.4233296101	0.0071653633	0.0047123890	0.0042836825	-0.0890117919	0.0180373189	-0.8552113335	0.0102296698	-0.3310016926	0.0081106216
0.1200000000	0.0000000000	0.0000000000	0.0000000000	0.0000000000	0.0000000000	0.0000000000	0.2544690049	0.0116340703	-0.4363323130	0.0072245809	0.0223402144	0.0043294969	-0.0631809189	0.0177338819	-0.9140289293	0.0100714134	-0.3480186528	0.0079542005
0.1300000000	0.0000000000	0.0000000000	0.0000000000	0.0000000000	0.0000000000	0.0000000000	0.2408554368	0.0114652590	-0.4384267081	0.0073287981	0.0395317076	0.0041927846	-0.0342084533	0.0173409635	-0.9644689447	0.0095016951	-0.3481059193	0.0089485632
0.1400000000	0.0000000000	0.0000000000	0.0000000000	0.0000000000	0.0000000000	0.0000000000	0.2272418686	0.0112976813	-0.4405211032	0.0074337617	0.0567232007	0.0040582656	-0.0052359878	0.0169524468	-1.0149089600	0.0089485632	-0.3481931858	0.0100014733
0.1500000000	0.0000000000	0.0000000000	0.0000000000	0.0000000000	0.0000000000	0.0000000000	0.2100503755	0.0110211268	-0.4338888520	0.0075394715	0.0712966999	0.0038823186	0.0253072742	0.0164338128	-1.0535680030	0.0081106216	-0.3336196865	0.0112976813
0.1600000000	0.0000000000	0.0000000000	0.0000000000	0.0000000000	0.0000000000	0.0000000000	0.1928588823	0.0107479992	-0.4272566009	0.0076459277	0.0858701992	0.0037102706	0.0558505361	0.0159232359	-1.0922270459	0.0073138642	-0.3190461873	0.0126728462
0.1700000000	0.0000000000	0.0000000000	0.0000000000	0.0000000000	0.0000000000	0.0000000000	0.1738347935	0.0105140606	-0.4142538980	0.0077224247	0.0964294412	0.0035629272	0.0861319986	0.0152478153	-1.1167489219	0.0065300532	-0.2946988442	0.0132490377
0.1800000000	0.0000000000	0.0000000000	0.0000000000	0.0000000000	0.0000000000	0.0000000000	0.1548107047	0.0102826961	-0.4012511950	0.0077993026	0.1069886831	0.0034185690	0.1164134611	0.0145870316	-1.1412707979	0.0057906553	-0.2703515011	0.0138380383
0.1900000000	0.0000000000	0.0000000000	0.0000000000	0.0000000000	0.0000000000	0.0000000000	0.1355248164	0.0101415973	-0.3844960342	0.0078301603	0.1138827337	0.0033072389	0.1445132621	0.0138791312	-1.1511319082	0.0054247489	-0.2421644337	0.0135317836
0.2000000000	0.0000000000	0.0000000000	0.0000000000	0.0000000000	0.0000000000	0.0000000000	0.1162389282	0.0100014733	-0.3677408734	0.0078610790	0.1207767842	0.0031977518	0.1726130630	0.0131888377	-1.1609930184	0.0050707834	-0.2139773663	0.0132289558
0.2100000000	0.0000000000	0.0000000000	0.0000000000	0.0000000000	0.0000000000	0.0000000000	0.0974766387	0.0099665946	-0.3490658504	0.0078301603	0.1245292421	0.0031192824	0.1966986067	0.0125747975	-1.1568914947	0.0052842669	-0.1863138977	0.0123798423
0.2200000000	0.0000000000	0.0000000000	0.0000000000	0.0000000000	0.0000000000	0.0000000000	0.0787143493	0.0099317768	-0.3303908274	0.0077993026	0.1282817000	0.0030417877	0.2207841504	0.0119753942	-1.1527899709	0.0055021521	-0.1586504290	0.0115588908
0.2300000000	0.0000000000	0.0000000000	0.0000000000	0.0000000000	0.0000000000	0.0000000000	0.0609119909	0.0099665946	-0.3111049392	0.0077070949	0.1293288976	0.0030225663	0.2401573051	0.0113906277	-1.1356857443	0.0061685028	-0.1338667536	0.0104961720
0.2400000000	0.0000000000	0.0000000000	0.0000000000	0.0000000000	0.0000000000	0.0000000000	0.0431096325	0.0100014733	-0.2918190509	0.0076154355	0.1303760951	0.0030034059	0.2595304598	0.0108204981	-1.1185815176	0.0068729305	-0.1090830782	0.0094846898
0.2500000000	0.0000000000	0.0000000000	0.0000000000	0.0000000000	0.0000000000	0.0000000000	0.0263544717	0.0101064749	-0.2729694950	0.0074488174	0.1294161640	0.0030417877	0.2746275578	0.0102826961	-1.0902199173	0.0078456120	-0.0880518608	0.0084601091
0.2600000000	0.0000000000	0.0000000000	0.0000000000	0.0000000000	0.0000000000	0.0000000000	0.0095993109	0.0102120248	-0.2541199391	0.0072840422	0.1284562329	0.0030804132	0.2897246558	0.0097586018	-1.0618583169	0.0088826440	-0.0670206433	0.0074940759
0.2700000000	0.0000000000	0.0000000000	0.0000000000	0.0000000000	0.0000000000	0.0000000000	-0.0061086524	0.0104247696	-0.2366666466	0.0070476591	0.1267109037	0.0031583953	0.3012438289	0.0092650074	-1.0236356063	0.0100189355	-0.0502654825	0.0066149500
0.2800000000	0.0000000000	0.0000000000	0.0000000000	0.0000000000	0.0000000000	0.0000000000	-0.0218166156	0.0106397077	-0.2192133541	0.0068151751	0.1249655744	0.0032373521	0.3127630020	0.0087842221	-0.9854128957	0.0112235984	-0.0335103216	0.0057906553
0.2900000000	0.0000000000	0.0000000000	0.0000000000	0.0000000000	0.0000000000	0.0000000000	-0.0365646478	0.0109845118	-0.2035926572	0.0065018761	0.1237438440	0.0033576150	0.3217514476	0.0083960176	-0.9384635388	0.0124381689	-0.0212930169	0.0051331158
0.3000000000	0.0000000000	0.0000000000	0.0000000000	0.0000000000	0.0000000000	0.0000000000	-0.0513126800	0.0113348142	-0.1879719604	0.0061959488	0.1225221135	0.0034800713	0.3307398933	0.0080165862	-0.8915141819	0.0137151252	-0.0090757121	0.0045151917
0.3100000000	0.0000000000	0.0000000000	0.0000000000	0.0000000000	0.0000000000	0.0000000000	-0.0654498469	0.0117094936	-0.1745329252	0.0058572523	0.1226966464	0.0036362258	0.3371976115	0.0078301603	-0.8366235769	0.0149475844	-0.0012217305	0.0041028616
0.3200000000	0.0000000000	0.0000000000	0.0000000000	0.0000000000	0.0000000000	0.0000000000	-0.0795870139	0.0120902654	-0.1610938900	0.0055280751	0.1228711793	0.0037958072	0.3436553297	0.0076459277	-0.7817329720	0.0162330623	0.0066322512	0.0037102706
0.3300000000	0.0000000000	0.0000000000	0.0000000000	0.0000000000	0.0000000000	0.0000000000	-0.0932005821	0.0124576416	-0.1499237827	0.0052210207	0.1244419757	0.0039588156	0.3468841888	0.0076459277	-0.7193374512	0.0172720819	0.0104719755	0.0035213774
0.3400000000	0.0000000000	0.0000000000	0.0000000000	0.0000000000	0.0000000000	0.0000000000	-0.1068141502	0.0128305162	-0.1387536755	0.0049227394	0.1260127720	0.0041252509	0.3501130480	0.0076459277	-0.6569419305	0.0183433299	0.0143116999	0.0033374189
0.3500000000	0.0000000000	0.0000000000	0.0000000000	0.0000000000	0.0000000000	0.0000000000	-0.1198168531	0.0131888377	-0.1302888287	0.0047167647	0.1283689665	0.0042608666	0.3495021827	0.0078147238	-0.5886122902	0.0186996181	0.0156206968	0.0033072389
0.3600000000	0.0000000000	0.0000000000	0.0000000000	0.0000000000	0.0000000000	0.0000000000	-0.1328195561	0.0135520939	-0.1218239818	0.0045151917	0.1307251610	0.0043986755	0.3488913175	0.0079853629	-0.5202826500	0.0190593332	0.0169296937	0.0032771960
0.3700000000	0.0000000000	0.0000000000	0.0000000000	0.0000000000	0.0000000000	0.0000000000	-0.1448623279	0.0138585771	-0.1164134611	0.0044334705	0.1329068225	0.0044684025	0.3445279943	0.0082685657	-0.4498586147	0.0183433299	0.0181514242	0.0033172837
0.3800000000	0.0000000000	0.0000000000	0.0000000000	0.0000000000	0.0000000000	0.0000000000	-0.1569050998	0.0141684873	-0.1110029404	0.0043524955	0.1350884841	0.0045386777	0.3401646712	0.0085567033	-0.3794345794	0.0176410345	0.0193731547	0.0033576150
0.3900000000	0.0000000000	0.0000000000	0.0000000000	0.0000000000	0.0000000000	0.0000000000	-0.1674643417	0.0144188828	-0.1094321441	0.0043986755	0.1365720140	0.0045976593	0.3332706207	0.0088662022	-0.3131120678	0.0157913670	0.0222529480	0.0034492516
0.4000000000	0.0000000000	0.0000000000	0.0000000000	0.0000000000	0.0000000000	0.0000000000	-0.1780235837	0.0146714716	-0.1078613478	0.0044450992	0.1380555438	0.0046570216	0.3263765701	0.0091811995	-0.2467895562	0.0140441120	0.0251327412	0.0035421218
0.4100000000	0.0000000000	0.0000000000	0.0000000000	0.0000000000	0.0000000000	0.0000000000	-0.1869247629	0.0148836376	-0.1111774734	0.0045976593	0.1384046097	0.0047648333	0.3190461873	0.0094168211	-0.1919862177	0.0115776628	0.0295833308	0.0035942495
0.4200000000	0.0000000000	0.0000000000	0.0000000000	0.0000000000	0.0000000000	0.0000000000	-0.1958259421	0.0150973267	-0.1144935989	0.0047527933	0.1387536755	0.0048738787	0.3117158044	0.0096554279	-0.1371828792	0.0093491960	0.0340339204	0.0036467579
0.4300000000	0.0000000000	0.0000000000	0.0000000000	0.0000000000	0.0000000000	0.0000000000	-0.2029817920	0.0153125389	-0.1233947781	0.0049964872	0.1369210798	0.0051081371	0.3057816849	0.0098276890	-0.1004436985	0.0071653633	0.0382227106	0.0036047207
0.4400000000	0.0000000000	0.0000000000	0.0000000000	0.0000000000	0.0000000000	0.0000000000	-0.2101376419	0.0155292742	-0.1322959573	0.0052462735	0.1350884841	0.0053478939	0.2998475655	0.0100014733	-0.0637045177	0.0052715872	0.0424115008	0.0035629272
0.4500000000	0.0000000000	0.0000000000	0.0000000000	0.0000000000	0.0000000000	0.0000000000	-0.2155481626	0.0157256382	-0.1475675883	0.0055280751	0.1295906970	0.0056848921	0.2961823741	0.0101240285	-0.0494800843	0.0041814909	0.0431968990	0.0034083719
0.4600000000	0.0000000000	0.0000000000	0.0000000000	0.0000000000	0.0000000000	0.0000000000	-0.2209586833	0.0159232359	-0.1628392192	0.0058172484	0.1240929098	0.0060321865	0.2925171826	0.0102473300	-0.0352556509	0.0032175215	0.0439822972	0.0032572436
